# xmcd CD database file
#
# Track frame offsets:
#	150
#	15540
#	32407
#	48479
#	63132
#	78499
#	93656
#	111899
#	126235
#	141625
#	154754
#	171531
#
# Disc length: 2510 seconds
#
# Revision: 0
# Processed by: cddbd v1.4PL0 Copyright (c) Steve Scherf et al.
# Submitted via: CDex 1.51
#
DISCID=a309cc0c
DTITLE=Darryl Worley - I Miss My Friend
DYEAR=1900
DGENRE=Country
TTITLE0=Tennessee River Run
TTITLE1=I Wouldn´t Mind The Shackles
TTITLE2=I Miss My Friend
TTITLE3=Callin´ Caroline
TTITLE4=Family Tree
TTITLE5=Back Where I Belong
TTITLE6=The Least That You Can Do
TTITLE7=I Built This Wall
TTITLE8=Opportunity Of A Lifetime
TTITLE9=Spread A Little Love Around
TTITLE10=Pow 369
TTITLE11=Where You Think You´re Goin´!
EXTD=
EXTT0=
EXTT1=
EXTT2=
EXTT3=
EXTT4=
EXTT5=
EXTT6=
EXTT7=
EXTT8=
EXTT9=
EXTT10=
EXTT11=
PLAYORDER=
